<svg width="43" height="43" viewBox="0 0 43 43" fill="none" xmlns="http://www.w3.org/2000/svg">
    <path fill-rule="evenodd" clip-rule="evenodd" d="M21.3799 0.878204C9.61995 0.878204 0.0699463 10.4282 0.0699463 22.1882C0.0699463 31.5982 6.17995 39.5882 14.6499 42.4082C15.7099 42.5982 16.0999 41.9382 16.0999 41.3782C16.0999 40.8682 16.0799 39.1982 16.0699 37.4182C10.1499 38.6982 8.89995 34.8982 8.89995 34.8982C7.92995 32.4382 6.52995 31.7782 6.52995 31.7782C4.59995 30.4582 6.67995 30.4882 6.67995 30.4882C8.81995 30.6382 9.93995 32.6882 9.93995 32.6882C11.8399 35.9382 14.9299 34.9982 16.1399 34.4582C16.3299 33.0782 16.8899 32.1382 17.4899 31.6082C12.7599 31.0682 7.78995 29.2382 7.78995 21.0782C7.78995 18.7482 8.61995 16.8482 9.97995 15.3582C9.75995 14.8182 9.02995 12.6582 10.1899 9.7182C10.1899 9.7182 11.9799 9.1482 16.0499 11.9082C17.7499 11.4282 19.5699 11.1982 21.3799 11.1882C23.1899 11.1982 25.0199 11.4282 26.7199 11.9082C30.7799 9.1482 32.5699 9.7182 32.5699 9.7182C33.7299 12.6582 32.9999 14.8182 32.7799 15.3582C34.1499 16.8482 34.9699 18.7482 34.9699 21.0782C34.9699 29.2582 29.9899 31.0582 25.2499 31.5882C26.0099 32.2482 26.6899 33.5482 26.6899 35.5382C26.6899 38.3882 26.6699 40.6782 26.6699 41.3782C26.6699 41.9482 27.0499 42.6182 28.1299 42.3982C36.5899 39.5782 42.6899 31.5982 42.6899 22.1882C42.6899 10.4282 33.1499 0.878204 21.3799 0.878204Z" fill="#1B1817"/>
</svg>
